<mxfile host="Electron" agent="Mozilla/5.0 (Windows NT 10.0; Win64; x64) AppleWebKit/537.36 (KHTML, like Gecko) draw.io/28.0.6 Chrome/138.0.7204.100 Electron/37.2.3 Safari/537.36" version="28.0.6">
  <diagram name="Page-1" id="vStY_9CdLE9wopMnkXnp">
    <mxGraphModel dx="1270" dy="951" grid="1" gridSize="10" guides="1" tooltips="1" connect="1" arrows="1" fold="1" page="1" pageScale="1" pageWidth="850" pageHeight="1100" math="0" shadow="0">
      <root>
        <mxCell id="0" />
        <mxCell id="1" parent="0" />
        <mxCell id="I6UhSFFQ_JrYwgSCZyD7-1" value="DATA FLOW DIAGRAM" style="text;html=1;align=center;verticalAlign=middle;whiteSpace=wrap;rounded=0;fillColor=#0050ef;fontColor=#ffffff;strokeColor=#001DBC;fontStyle=1;labelBorderColor=none;labelBackgroundColor=none;textShadow=1;fontSize=19;" vertex="1" parent="1">
          <mxGeometry x="-850" y="40" width="370" height="40" as="geometry" />
        </mxCell>
        <mxCell id="I6UhSFFQ_JrYwgSCZyD7-2" value="" style="rounded=0;whiteSpace=wrap;html=1;" vertex="1" parent="1">
          <mxGeometry x="-850" y="180" width="170" height="430" as="geometry" />
        </mxCell>
        <mxCell id="I6UhSFFQ_JrYwgSCZyD7-4" value="&lt;b&gt;&lt;font style=&quot;font-size: 20px;&quot;&gt;Sources&lt;/font&gt;&lt;/b&gt;" style="rounded=1;whiteSpace=wrap;html=1;" vertex="1" parent="1">
          <mxGeometry x="-825" y="150" width="120" height="60" as="geometry" />
        </mxCell>
        <mxCell id="I6UhSFFQ_JrYwgSCZyD7-13" style="edgeStyle=orthogonalEdgeStyle;rounded=0;orthogonalLoop=1;jettySize=auto;html=1;entryX=0;entryY=0.5;entryDx=0;entryDy=0;" edge="1" parent="1" source="I6UhSFFQ_JrYwgSCZyD7-5" target="I6UhSFFQ_JrYwgSCZyD7-10">
          <mxGeometry relative="1" as="geometry" />
        </mxCell>
        <mxCell id="I6UhSFFQ_JrYwgSCZyD7-15" style="edgeStyle=orthogonalEdgeStyle;rounded=0;orthogonalLoop=1;jettySize=auto;html=1;entryX=0;entryY=0.5;entryDx=0;entryDy=0;" edge="1" parent="1" source="I6UhSFFQ_JrYwgSCZyD7-5" target="I6UhSFFQ_JrYwgSCZyD7-9">
          <mxGeometry relative="1" as="geometry">
            <Array as="points">
              <mxPoint x="-670" y="301" />
              <mxPoint x="-670" y="245" />
            </Array>
          </mxGeometry>
        </mxCell>
        <mxCell id="I6UhSFFQ_JrYwgSCZyD7-16" style="edgeStyle=orthogonalEdgeStyle;rounded=0;orthogonalLoop=1;jettySize=auto;html=1;entryX=0;entryY=0.5;entryDx=0;entryDy=0;" edge="1" parent="1" source="I6UhSFFQ_JrYwgSCZyD7-5" target="I6UhSFFQ_JrYwgSCZyD7-11">
          <mxGeometry relative="1" as="geometry">
            <mxPoint x="-670" y="360" as="targetPoint" />
            <Array as="points">
              <mxPoint x="-670" y="301" />
              <mxPoint x="-670" y="365" />
            </Array>
          </mxGeometry>
        </mxCell>
        <mxCell id="I6UhSFFQ_JrYwgSCZyD7-5" value="CRM" style="image;aspect=fixed;html=1;points=[];align=center;fontSize=12;image=img/lib/azure2/general/Folder_Blank.svg;" vertex="1" parent="1">
          <mxGeometry x="-820" y="273" width="69" height="56.00000000000001" as="geometry" />
        </mxCell>
        <mxCell id="I6UhSFFQ_JrYwgSCZyD7-20" style="edgeStyle=orthogonalEdgeStyle;rounded=0;orthogonalLoop=1;jettySize=auto;html=1;entryX=0;entryY=0.5;entryDx=0;entryDy=0;" edge="1" parent="1" source="I6UhSFFQ_JrYwgSCZyD7-6" target="I6UhSFFQ_JrYwgSCZyD7-18">
          <mxGeometry relative="1" as="geometry" />
        </mxCell>
        <mxCell id="I6UhSFFQ_JrYwgSCZyD7-21" style="edgeStyle=orthogonalEdgeStyle;rounded=0;orthogonalLoop=1;jettySize=auto;html=1;entryX=0;entryY=0.5;entryDx=0;entryDy=0;" edge="1" parent="1" source="I6UhSFFQ_JrYwgSCZyD7-6" target="I6UhSFFQ_JrYwgSCZyD7-17">
          <mxGeometry relative="1" as="geometry">
            <mxPoint x="-660" y="440" as="targetPoint" />
            <Array as="points">
              <mxPoint x="-670" y="511" />
              <mxPoint x="-670" y="445" />
            </Array>
          </mxGeometry>
        </mxCell>
        <mxCell id="I6UhSFFQ_JrYwgSCZyD7-22" style="edgeStyle=orthogonalEdgeStyle;rounded=0;orthogonalLoop=1;jettySize=auto;html=1;entryX=0;entryY=0.5;entryDx=0;entryDy=0;" edge="1" parent="1" source="I6UhSFFQ_JrYwgSCZyD7-6" target="I6UhSFFQ_JrYwgSCZyD7-19">
          <mxGeometry relative="1" as="geometry">
            <mxPoint x="-660" y="570" as="targetPoint" />
            <Array as="points">
              <mxPoint x="-670" y="511" />
              <mxPoint x="-670" y="565" />
            </Array>
          </mxGeometry>
        </mxCell>
        <mxCell id="I6UhSFFQ_JrYwgSCZyD7-6" value="CRM" style="image;aspect=fixed;html=1;points=[];align=center;fontSize=12;image=img/lib/azure2/general/Folder_Blank.svg;" vertex="1" parent="1">
          <mxGeometry x="-799.5" y="483" width="69" height="56.00000000000001" as="geometry" />
        </mxCell>
        <mxCell id="I6UhSFFQ_JrYwgSCZyD7-7" value="" style="rounded=0;whiteSpace=wrap;html=1;" vertex="1" parent="1">
          <mxGeometry x="-640" y="180" width="160" height="430" as="geometry" />
        </mxCell>
        <mxCell id="I6UhSFFQ_JrYwgSCZyD7-8" value="&lt;font style=&quot;font-size: 15px;&quot;&gt;&lt;b&gt;Bronze Layer&lt;/b&gt;&lt;/font&gt;" style="rounded=1;whiteSpace=wrap;html=1;fillColor=#ffcc99;strokeColor=#36393d;fontColor=#010101;" vertex="1" parent="1">
          <mxGeometry x="-620" y="150" width="120" height="60" as="geometry" />
        </mxCell>
        <mxCell id="I6UhSFFQ_JrYwgSCZyD7-31" style="edgeStyle=orthogonalEdgeStyle;rounded=0;orthogonalLoop=1;jettySize=auto;html=1;entryX=0;entryY=0.5;entryDx=0;entryDy=0;" edge="1" parent="1" source="I6UhSFFQ_JrYwgSCZyD7-9" target="I6UhSFFQ_JrYwgSCZyD7-25">
          <mxGeometry relative="1" as="geometry" />
        </mxCell>
        <mxCell id="I6UhSFFQ_JrYwgSCZyD7-9" value="&lt;font style=&quot;font-size: 13px; color: rgb(1, 1, 1);&quot;&gt;crm_sales_detailes&lt;/font&gt;" style="rounded=1;whiteSpace=wrap;html=1;fillColor=#fad7ac;strokeColor=#b46504;" vertex="1" parent="1">
          <mxGeometry x="-640" y="230" width="160" height="30" as="geometry" />
        </mxCell>
        <mxCell id="I6UhSFFQ_JrYwgSCZyD7-32" style="edgeStyle=orthogonalEdgeStyle;rounded=0;orthogonalLoop=1;jettySize=auto;html=1;entryX=0;entryY=0.5;entryDx=0;entryDy=0;" edge="1" parent="1" source="I6UhSFFQ_JrYwgSCZyD7-10" target="I6UhSFFQ_JrYwgSCZyD7-26">
          <mxGeometry relative="1" as="geometry" />
        </mxCell>
        <mxCell id="I6UhSFFQ_JrYwgSCZyD7-10" value="&lt;font color=&quot;#010101&quot;&gt;&lt;span style=&quot;font-size: 13px;&quot;&gt;crm_cust_info&lt;/span&gt;&lt;/font&gt;" style="rounded=1;whiteSpace=wrap;html=1;fillColor=#fad7ac;strokeColor=#b46504;" vertex="1" parent="1">
          <mxGeometry x="-640" y="286" width="160" height="30" as="geometry" />
        </mxCell>
        <mxCell id="I6UhSFFQ_JrYwgSCZyD7-33" style="edgeStyle=orthogonalEdgeStyle;rounded=0;orthogonalLoop=1;jettySize=auto;html=1;entryX=0;entryY=0.5;entryDx=0;entryDy=0;" edge="1" parent="1" source="I6UhSFFQ_JrYwgSCZyD7-11" target="I6UhSFFQ_JrYwgSCZyD7-27">
          <mxGeometry relative="1" as="geometry" />
        </mxCell>
        <mxCell id="I6UhSFFQ_JrYwgSCZyD7-11" value="&lt;font style=&quot;font-size: 13px; color: rgb(1, 1, 1);&quot;&gt;crm_prd_info&lt;/font&gt;" style="rounded=1;whiteSpace=wrap;html=1;fillColor=#fad7ac;strokeColor=#b46504;" vertex="1" parent="1">
          <mxGeometry x="-640" y="350" width="160" height="30" as="geometry" />
        </mxCell>
        <mxCell id="I6UhSFFQ_JrYwgSCZyD7-34" style="edgeStyle=orthogonalEdgeStyle;rounded=0;orthogonalLoop=1;jettySize=auto;html=1;entryX=0;entryY=0.5;entryDx=0;entryDy=0;" edge="1" parent="1" source="I6UhSFFQ_JrYwgSCZyD7-17" target="I6UhSFFQ_JrYwgSCZyD7-30">
          <mxGeometry relative="1" as="geometry" />
        </mxCell>
        <mxCell id="I6UhSFFQ_JrYwgSCZyD7-17" value="&lt;font color=&quot;#010101&quot;&gt;&lt;span style=&quot;font-size: 13px;&quot;&gt;erp_custaz12&lt;/span&gt;&lt;/font&gt;" style="rounded=1;whiteSpace=wrap;html=1;fillColor=#fad7ac;strokeColor=#b46504;" vertex="1" parent="1">
          <mxGeometry x="-640" y="430" width="160" height="30" as="geometry" />
        </mxCell>
        <mxCell id="I6UhSFFQ_JrYwgSCZyD7-35" style="edgeStyle=orthogonalEdgeStyle;rounded=0;orthogonalLoop=1;jettySize=auto;html=1;entryX=0;entryY=0.5;entryDx=0;entryDy=0;" edge="1" parent="1" source="I6UhSFFQ_JrYwgSCZyD7-18" target="I6UhSFFQ_JrYwgSCZyD7-29">
          <mxGeometry relative="1" as="geometry" />
        </mxCell>
        <mxCell id="I6UhSFFQ_JrYwgSCZyD7-18" value="&lt;font style=&quot;font-size: 13px; color: rgb(1, 1, 1);&quot;&gt;erp_loc_a101&lt;/font&gt;" style="rounded=1;whiteSpace=wrap;html=1;fillColor=#fad7ac;strokeColor=#b46504;" vertex="1" parent="1">
          <mxGeometry x="-640" y="496" width="160" height="30" as="geometry" />
        </mxCell>
        <mxCell id="I6UhSFFQ_JrYwgSCZyD7-36" style="edgeStyle=orthogonalEdgeStyle;rounded=0;orthogonalLoop=1;jettySize=auto;html=1;entryX=0;entryY=0.5;entryDx=0;entryDy=0;" edge="1" parent="1" source="I6UhSFFQ_JrYwgSCZyD7-19" target="I6UhSFFQ_JrYwgSCZyD7-28">
          <mxGeometry relative="1" as="geometry" />
        </mxCell>
        <mxCell id="I6UhSFFQ_JrYwgSCZyD7-19" value="&lt;font color=&quot;#010101&quot;&gt;&lt;span style=&quot;font-size: 13px;&quot;&gt;erp_px_cat_g1v2&lt;/span&gt;&lt;/font&gt;" style="rounded=1;whiteSpace=wrap;html=1;fillColor=#fad7ac;strokeColor=#b46504;" vertex="1" parent="1">
          <mxGeometry x="-640" y="550" width="160" height="30" as="geometry" />
        </mxCell>
        <mxCell id="I6UhSFFQ_JrYwgSCZyD7-23" value="" style="rounded=0;whiteSpace=wrap;html=1;" vertex="1" parent="1">
          <mxGeometry x="-390" y="180" width="160" height="430" as="geometry" />
        </mxCell>
        <mxCell id="I6UhSFFQ_JrYwgSCZyD7-24" value="&lt;font style=&quot;font-size: 20px;&quot;&gt;Silver Layer&lt;/font&gt;" style="rounded=1;whiteSpace=wrap;html=1;fillColor=#bac8d3;strokeColor=#23445d;fontColor=#010101;" vertex="1" parent="1">
          <mxGeometry x="-370" y="150" width="120" height="60" as="geometry" />
        </mxCell>
        <mxCell id="I6UhSFFQ_JrYwgSCZyD7-25" value="&lt;font style=&quot;font-size: 13px; color: rgb(1, 1, 1);&quot;&gt;crm_sales_detailes&lt;/font&gt;" style="rounded=1;whiteSpace=wrap;html=1;fillColor=#f5f5f5;strokeColor=#666666;gradientColor=#b3b3b3;" vertex="1" parent="1">
          <mxGeometry x="-390" y="230" width="160" height="30" as="geometry" />
        </mxCell>
        <mxCell id="I6UhSFFQ_JrYwgSCZyD7-26" value="&lt;font style=&quot;font-size: 13px; color: rgb(1, 1, 1);&quot;&gt;crm_cust_info&lt;/font&gt;" style="rounded=1;whiteSpace=wrap;html=1;fillColor=#f5f5f5;strokeColor=#666666;gradientColor=#b3b3b3;" vertex="1" parent="1">
          <mxGeometry x="-390" y="286" width="160" height="30" as="geometry" />
        </mxCell>
        <mxCell id="I6UhSFFQ_JrYwgSCZyD7-27" value="&lt;font style=&quot;font-size: 13px; color: rgb(1, 1, 1);&quot;&gt;crm_prd_info&lt;/font&gt;" style="rounded=1;whiteSpace=wrap;html=1;fillColor=#f5f5f5;strokeColor=#666666;gradientColor=#b3b3b3;" vertex="1" parent="1">
          <mxGeometry x="-390" y="350" width="160" height="30" as="geometry" />
        </mxCell>
        <mxCell id="I6UhSFFQ_JrYwgSCZyD7-28" value="&lt;font color=&quot;#010101&quot;&gt;&lt;span style=&quot;font-size: 13px;&quot;&gt;erp_px_cat_g1v2&lt;/span&gt;&lt;/font&gt;" style="rounded=1;whiteSpace=wrap;html=1;fillColor=#f5f5f5;strokeColor=#666666;gradientColor=#b3b3b3;" vertex="1" parent="1">
          <mxGeometry x="-390" y="550" width="160" height="30" as="geometry" />
        </mxCell>
        <mxCell id="I6UhSFFQ_JrYwgSCZyD7-29" value="&lt;font color=&quot;#010101&quot;&gt;&lt;span style=&quot;font-size: 13px;&quot;&gt;erp_loc_a101&lt;/span&gt;&lt;/font&gt;" style="rounded=1;whiteSpace=wrap;html=1;fillColor=#f5f5f5;strokeColor=#666666;gradientColor=#b3b3b3;" vertex="1" parent="1">
          <mxGeometry x="-390" y="496" width="160" height="30" as="geometry" />
        </mxCell>
        <mxCell id="I6UhSFFQ_JrYwgSCZyD7-30" value="&lt;font color=&quot;#010101&quot;&gt;&lt;span style=&quot;font-size: 13px;&quot;&gt;erp_cust_az12&lt;/span&gt;&lt;/font&gt;" style="rounded=1;whiteSpace=wrap;html=1;fillColor=#f5f5f5;strokeColor=#666666;gradientColor=#b3b3b3;" vertex="1" parent="1">
          <mxGeometry x="-390" y="430" width="160" height="30" as="geometry" />
        </mxCell>
        <mxCell id="I6UhSFFQ_JrYwgSCZyD7-37" value="" style="rounded=0;whiteSpace=wrap;html=1;" vertex="1" parent="1">
          <mxGeometry x="-120" y="180" width="160" height="430" as="geometry" />
        </mxCell>
        <mxCell id="I6UhSFFQ_JrYwgSCZyD7-38" value="&lt;font style=&quot;font-size: 22px; color: rgb(1, 1, 1);&quot;&gt;Gold Layer&lt;/font&gt;" style="rounded=1;whiteSpace=wrap;html=1;fillColor=#fff2cc;gradientColor=#ffd966;strokeColor=#d6b656;" vertex="1" parent="1">
          <mxGeometry x="-100" y="150" width="120" height="60" as="geometry" />
        </mxCell>
        <mxCell id="I6UhSFFQ_JrYwgSCZyD7-39" value="&lt;font color=&quot;#010101&quot;&gt;&lt;span style=&quot;font-size: 13px;&quot;&gt;fact_sales&lt;/span&gt;&lt;/font&gt;" style="rounded=1;whiteSpace=wrap;html=1;fillColor=#fff2cc;strokeColor=#d6b656;" vertex="1" parent="1">
          <mxGeometry x="-120" y="330" width="160" height="29" as="geometry" />
        </mxCell>
        <mxCell id="I6UhSFFQ_JrYwgSCZyD7-40" value="&lt;font color=&quot;#010101&quot;&gt;&lt;span style=&quot;font-size: 13px;&quot;&gt;dim_customers&lt;/span&gt;&lt;/font&gt;" style="rounded=1;whiteSpace=wrap;html=1;fillColor=#fff2cc;strokeColor=#d6b656;" vertex="1" parent="1">
          <mxGeometry x="-120" y="390" width="160" height="30" as="geometry" />
        </mxCell>
        <mxCell id="I6UhSFFQ_JrYwgSCZyD7-41" value="&lt;font style=&quot;color: rgb(1, 1, 1);&quot;&gt;dim_products&lt;/font&gt;" style="rounded=1;whiteSpace=wrap;html=1;fillColor=#fff2cc;strokeColor=#d6b656;" vertex="1" parent="1">
          <mxGeometry x="-120" y="460" width="160" height="30" as="geometry" />
        </mxCell>
        <mxCell id="I6UhSFFQ_JrYwgSCZyD7-42" value="" style="endArrow=none;html=1;rounded=0;entryX=0;entryY=0.5;entryDx=0;entryDy=0;jumpStyle=gap;" edge="1" parent="1">
          <mxGeometry width="50" height="50" relative="1" as="geometry">
            <mxPoint x="-240" y="248" as="sourcePoint" />
            <mxPoint x="-120" y="349.9999999999998" as="targetPoint" />
          </mxGeometry>
        </mxCell>
        <mxCell id="I6UhSFFQ_JrYwgSCZyD7-43" value="" style="endArrow=none;html=1;rounded=0;entryX=0;entryY=0.5;entryDx=0;entryDy=0;jumpStyle=gap;fillColor=#f8cecc;gradientColor=#ea6b66;strokeColor=#b85450;" edge="1" parent="1" target="I6UhSFFQ_JrYwgSCZyD7-40">
          <mxGeometry width="50" height="50" relative="1" as="geometry">
            <mxPoint x="-230" y="300" as="sourcePoint" />
            <mxPoint x="-180" y="250" as="targetPoint" />
          </mxGeometry>
        </mxCell>
        <mxCell id="I6UhSFFQ_JrYwgSCZyD7-44" value="" style="endArrow=none;html=1;rounded=0;jumpStyle=gap;fillColor=#fff2cc;strokeColor=#d6b656;" edge="1" parent="1">
          <mxGeometry width="50" height="50" relative="1" as="geometry">
            <mxPoint x="-230" y="369" as="sourcePoint" />
            <mxPoint x="-120" y="480" as="targetPoint" />
          </mxGeometry>
        </mxCell>
        <mxCell id="I6UhSFFQ_JrYwgSCZyD7-47" value="" style="endArrow=none;html=1;rounded=0;entryX=0;entryY=0.5;entryDx=0;entryDy=0;jumpStyle=gap;fillColor=#f8cecc;gradientColor=#ea6b66;strokeColor=#b85450;" edge="1" parent="1" target="I6UhSFFQ_JrYwgSCZyD7-40">
          <mxGeometry width="50" height="50" relative="1" as="geometry">
            <mxPoint x="-230" y="450" as="sourcePoint" />
            <mxPoint x="-180" y="400" as="targetPoint" />
          </mxGeometry>
        </mxCell>
        <mxCell id="I6UhSFFQ_JrYwgSCZyD7-48" value="" style="endArrow=none;html=1;rounded=0;jumpStyle=gap;fillColor=#f8cecc;strokeColor=#b85450;gradientColor=#ea6b66;" edge="1" parent="1">
          <mxGeometry width="50" height="50" relative="1" as="geometry">
            <mxPoint x="-230" y="510" as="sourcePoint" />
            <mxPoint x="-120" y="410" as="targetPoint" />
          </mxGeometry>
        </mxCell>
        <mxCell id="I6UhSFFQ_JrYwgSCZyD7-49" value="" style="endArrow=none;html=1;rounded=0;entryX=0;entryY=0.5;entryDx=0;entryDy=0;jumpStyle=gap;fillColor=#fff2cc;strokeColor=#d6b656;" edge="1" parent="1">
          <mxGeometry width="50" height="50" relative="1" as="geometry">
            <mxPoint x="-230" y="575" as="sourcePoint" />
            <mxPoint x="-120" y="480" as="targetPoint" />
          </mxGeometry>
        </mxCell>
      </root>
    </mxGraphModel>
  </diagram>
</mxfile>
